<svg id="Layer_3" enable-background="new 0 0 64 64" height="512" viewBox="0 0 64 64" width="512" xmlns="http://www.w3.org/2000/svg"><g><path d="m50.033 16v46l-7-3-7 3v-46z" fill="#d5cec2"/><path d="m14.033 16h22v46h-22z" fill="#e7e4dd"/><circle cx="25" cy="27" fill="#c1c8d1" r="7"/><path d="m25 34-1.265-1.265c-.471-.471-.735-1.109-.735-1.775 0-1.152.784-2.156 1.902-2.436l.822-.206c.75-.186 1.276-.86 1.276-1.633 0-.931-.754-1.685-1.685-1.685-1.278 0-2.315-1.037-2.315-2.315v-2.395c.634-.189 1.305-.29 2-.29 3.866 0 7 3.134 7 7s-3.134 7-7 7z" fill="#8892a0"/><path d="m43.033 8 7 8h-14z" fill="#a8b0bc"/><path d="m43.033 8-7 8h-22l7-8z" fill="#8892a0"/><path d="m43.033 8h-22l-3.5 4h22z" fill="#758190"/><path d="m43.033 8v-6h-22v6" fill="#c1c8d1"/><path d="m22 49v-7c0-.552.448-1 1-1h4c.552 0 1 .448 1 1v7" fill="#a8b0bc"/><path d="m28 55h-6c-1.657 0-3-1.343-3-3 0-1.657 1.343-3 3-3h6c1.657 0 3 1.343 3 3 0 1.657-1.343 3-3 3z" fill="#fadfb2"/><path d="m28 43h4c0 2.209-1.791 4-4 4" fill="#758190"/><path d="m22 43h-4c0 2.209 1.791 4 4 4" fill="#758190"/><g><path d="m22 51h2v2h-2z" fill="#efbe9a"/></g><g><path d="m26 51h2v2h-2z" fill="#efbe9a"/></g><g><path d="m39 53h6v2h-6z" fill="#a8b0bc"/></g><path d="m40 20h6v12h-6z" fill="#758190"/><g><path d="m39 35h8v2h-8z" fill="#a8b0bc"/></g><g><path d="m39 39h5v2h-5z" fill="#a8b0bc"/></g><g><path d="m39 43h5v2h-5z" fill="#a8b0bc"/></g><path d="m40 31.031c2.61-.891 4.757-2.768 6-5.192v-5.839h-6z" fill="#8892a0"/><path d="m27 41.483c0-.163-.013-.323-.024-.483h-3.976c-.552 0-1 .448-1 1v5.789c2.865-.672 5-3.237 5-6.306z" fill="#c1c8d1"/></g></svg>
